<?xml version="1.0" encoding="utf-8"?>
<!-- Generator: Adobe Illustrator 16.0.0, SVG Export Plug-In . SVG Version: 6.00 Build 0)  -->
<!DOCTYPE svg PUBLIC "-//W3C//DTD SVG 1.1//EN" "http://www.w3.org/Graphics/SVG/1.1/DTD/svg11.dtd">
<svg version="1.1" id="Layer_1" xmlns="http://www.w3.org/2000/svg" xmlns:xlink="http://www.w3.org/1999/xlink" x="0px" y="0px"
	 width="958px" height="976px" viewBox="0 -12.591 958 976" enable-background="new 0 -12.591 958 976" xml:space="preserve" style="filter:drop-shadow(rgb(255, 255, 255) 0px 0px 10px) drop-shadow(rgb(255, 255, 255) 0px 0px 20px) drop-shadow(rgba(195, 60, 60, 0.25) 0px 0px 30px) drop-shadow(rgba(195, 60, 60, 0.75) 0px 0px 30px) drop-shadow(rgb(165, 65, 156) 0px 0px 50px);">


<g>
	<g>
		<path fill="#FFFFFF" style="" transform="translate(200, 150)" id="dice" d="M293.129,3.282l3.708,0.819L570.595,162.02l3.986,7.86l-0.048,314.478l-4.542,7.416L293.074,651.727
			L14.652,490.858l-2.913-6.33l-0.257-314.979l4.741-7.854L289.419,4.062L293.129,3.282 M543.581,158.515l2.919-0.344l0.193-1.186
			L297.454,13.134l-0.236,94.725l2.62,4.341L543.581,158.515 M39.349,158.638l246.282-46.105l3.589-4.264l-0.041-89.927
			l-1.802-4.186L39.083,157.264L39.349,158.638 M498.416,436.37l0.094-0.019l2.484-2.557l65.075-263.92l-264.099-49.66
			l194.204,314.134L498.416,436.37 M92.225,436.956l192.696-315.771l-260.742,48.47l-2.443,3.328l68.691,263.421L92.225,436.956
			 M96.405,444.425h397.34l-200.55-322.484L96.405,444.425 M19.605,480.638l63.058-33.041l1.609-4.039L20.933,200.22l-1.329,0.082
			L19.605,480.638 M566.067,480.327l0.482-276.435l-1.257-0.108l-59.214,240.058l1.644,3.629L566.067,480.327 M293.148,641.94
			l197.664-188.689l-385.167-1.548l-4.371,1.352L293.148,641.94 M263.075,625.579l0.947-1.361L88.247,453.725l-64.7,33.619
			L263.075,625.579 M324.233,624.923l237.325-137.035l-58.82-33.646l-179.5,169.43L324.233,624.923 M293.13-1.718l-6.036,1.353
			L13.722,157.365l-7.241,12.19L6.74,484.66l5.131,10.354l281.217,162.516l279.363-161.401l7.082-11.854l0.049-314.387
			l-6.486-12.197L299.32-0.24L293.13-1.718L293.13-1.718L293.13-1.718z M62.216,149.384L284.177,21.246l0.04,86.462L62.216,149.384
			L62.216,149.384L62.216,149.384z M302.209,107.516l-0.184-85.97l221.311,127.732l-221.084-41.645L302.209,107.516L302.209,107.516
			L302.209,107.516z M26.837,174.17l248.825-47.41L92.963,426.147L26.837,174.17L26.837,174.17L26.837,174.17z M497.579,427.16
			l-186.8-300.2l249.181,46.855L497.579,427.16L497.579,427.16L497.579,427.16z M105.314,439.425l187.92-307.952l191.513,307.952
			H105.314L105.314,439.425L105.314,439.425z M24.605,472.392V233.616l54.636,210.135L24.605,472.392L24.605,472.392L24.605,472.392
			z M511.199,443.854l50.948-206.074l-0.169,235.292L511.199,443.854L511.199,443.854L511.199,443.854z M293.182,634.997
			L110.61,456.713l368.351,0.94L293.182,634.997L293.182,634.997L293.182,634.997z M33.768,487.468L88.076,458.8l149.851,146.493
			L33.768,487.468L33.768,487.468L33.768,487.468z M351.014,603.688L502.737,459.24l49.16,28.453L351.014,603.688L351.014,603.688
			L351.014,603.688z"/>
	</g>
</g>
</svg>